<mxfile host="app.diagrams.net" modified="2023-02-06T06:03:49.647Z" agent="5.0 (Macintosh; Intel Mac OS X 10_15_7) AppleWebKit/537.36 (KHTML, like Gecko) Chrome/109.0.0.0 Safari/537.36" etag="isAmYMoobiXRDX3lnQn9" version="20.8.16" type="github">
  <diagram name="第 1 页" id="DQ4vnqbaAruQO6hosDas">
    <mxGraphModel dx="1026" dy="696" grid="1" gridSize="10" guides="1" tooltips="1" connect="1" arrows="1" fold="1" page="1" pageScale="1" pageWidth="827" pageHeight="1169" math="0" shadow="0">
      <root>
        <mxCell id="0" />
        <mxCell id="1" parent="0" />
        <mxCell id="CHAmgj8XD7G-4vBLw-fB-1" value="maven引入包报错" style="ellipse;whiteSpace=wrap;html=1;" parent="1" vertex="1">
          <mxGeometry x="520" y="280" width="120" height="80" as="geometry" />
        </mxCell>
        <mxCell id="bGegoPfqhi79Xag3igd6-1" value="工作中解决问题总结" style="rounded=0;whiteSpace=wrap;html=1;" parent="1" vertex="1">
          <mxGeometry x="30" y="290" width="120" height="60" as="geometry" />
        </mxCell>
        <mxCell id="HtUIfNNRaIUyvYhPCVnW-1" value="" style="endArrow=classic;html=1;rounded=0;fontSize=12;startSize=8;endSize=8;curved=1;" parent="1" edge="1">
          <mxGeometry relative="1" as="geometry">
            <mxPoint x="150" y="323" as="sourcePoint" />
            <mxPoint x="520" y="318" as="targetPoint" />
            <Array as="points">
              <mxPoint x="450" y="317" />
            </Array>
          </mxGeometry>
        </mxCell>
        <mxCell id="HtUIfNNRaIUyvYhPCVnW-2" value="解决办法" style="edgeLabel;resizable=0;html=1;align=center;verticalAlign=middle;fontSize=16;" parent="HtUIfNNRaIUyvYhPCVnW-1" connectable="0" vertex="1">
          <mxGeometry relative="1" as="geometry" />
        </mxCell>
      </root>
    </mxGraphModel>
  </diagram>
</mxfile>
